<svg width="42" height="43" viewBox="0 0 42 43" fill="none" xmlns="http://www.w3.org/2000/svg"><g filter="url(#filter0_d)"><path d="M38 17.131c0 4.54-1.768 8.81-4.98 12.02a16.89 16.89 0 01-12.018 4.98H21c-4.54 0-8.81-1.768-12.02-4.98A16.89 16.89 0 014 17.132c0-4.54 1.768-8.81 4.98-12.02C12.19 1.898 16.46.13 21 .13h.002c4.54 0 8.809 1.77 12.019 4.98C36.23 8.32 38 12.59 38 17.13z" fill="#FFFEFD"/></g><path d="M27.464 14.897c-2.826 1.557-2.428 6.251.608 6.304 1.31.023 2.46-.942 2.985-2.192 1.215-2.887-1.166-5.45-3.593-4.112zM24.579 15.427c3.358.059 4.46-5.627 1.285-6.62-1.447-.453-3.117.543-3.68 2.407-.63 2.09.506 4.18 2.395 4.213z" fill="#FF7236"/><path d="M23.544 25.565c-.465-.137-1.29-.235-2.157-.262-.916-.03-1.876.02-2.5.18-1.683.439-3.944-.73-3.405-3.068.5-2.16 2.16-2.008 2.588-4.056.431-2.07 1.988-3.046 3.483-2.941 1.384.096 2.715 1.119 3.05 3.055.356 2.063 2.018 1.968 2.444 4.143.462 2.357-1.842 3.44-3.503 2.949zM18.667 15.325c.95.016 1.775-.521 2.243-1.358 1.39-2.488-.765-6.002-3.305-5.302-3.212.885-2.295 6.602 1.062 6.66z" fill="#FF7236"/><path d="M17.084 19.142c1.123-2.62-1.379-5.887-3.837-4.915-2.962 1.17-1.753 6.46 1.48 6.517 1.038.018 1.93-.606 2.357-1.602zM23.544 25.565c-.464-.137-1.29-.235-2.157-.262l.166-9.885c1.384.096 2.715 1.119 3.05 3.055.356 2.063 2.018 1.968 2.444 4.143.462 2.357-1.842 3.44-3.503 2.949z" fill="#FF7236"/><defs><filter id="filter0_d" x="0" y=".131" width="42" height="42" filterUnits="userSpaceOnUse" color-interpolation-filters="sRGB"><feFlood flood-opacity="0" result="BackgroundImageFix"/><feColorMatrix in="SourceAlpha" values="0 0 0 0 0 0 0 0 0 0 0 0 0 0 0 0 0 0 127 0"/><feOffset dy="4"/><feGaussianBlur stdDeviation="2"/><feColorMatrix values="0 0 0 0 0 0 0 0 0 0 0 0 0 0 0 0 0 0 0.25 0"/><feBlend in2="BackgroundImageFix" result="effect1_dropShadow"/><feBlend in="SourceGraphic" in2="effect1_dropShadow" result="shape"/></filter></defs></svg>
